<mxfile host="app.diagrams.net" modified="2023-10-11T09:49:52.663Z" agent="Mozilla/5.0 (Windows NT 10.0; Win64; x64) AppleWebKit/537.36 (KHTML, like Gecko) Chrome/117.0.0.0 Safari/537.36" etag="QRBTngeX0eUdQouIBS9g" version="22.0.4" type="device">
  <diagram name="Page-1" id="9f46799a-70d6-7492-0946-bef42562c5a5">
    <mxGraphModel dx="1500" dy="820" grid="0" gridSize="10" guides="1" tooltips="1" connect="1" arrows="1" fold="1" page="1" pageScale="1" pageWidth="1100" pageHeight="850" background="none" math="0" shadow="0">
      <root>
        <mxCell id="0" />
        <mxCell id="1" parent="0" />
        <mxCell id="ZWZ4TqS6q02lusVHSzw_-1" value="&amp;lt;&amp;lt; настільний комп&#39;ютер&amp;gt;&amp;gt;" style="verticalAlign=top;align=center;spacingTop=8;spacingLeft=2;spacingRight=12;shape=cube;size=10;direction=south;fontStyle=4;html=1;strokeWidth=2;" parent="1" vertex="1">
          <mxGeometry x="70" y="140" width="230" height="250" as="geometry" />
        </mxCell>
        <mxCell id="ZWZ4TqS6q02lusVHSzw_-7" value="" style="ellipse;whiteSpace=wrap;html=1;aspect=fixed;" parent="1" vertex="1">
          <mxGeometry x="95" y="425" width="40" height="40" as="geometry" />
        </mxCell>
        <mxCell id="ZWZ4TqS6q02lusVHSzw_-8" value="Клавіатура" style="text;html=1;strokeColor=none;fillColor=none;align=center;verticalAlign=middle;whiteSpace=wrap;rounded=0;" parent="1" vertex="1">
          <mxGeometry x="90" y="470" width="60" height="30" as="geometry" />
        </mxCell>
        <mxCell id="ZWZ4TqS6q02lusVHSzw_-9" value="" style="endArrow=none;html=1;rounded=0;exitX=1.014;exitY=0.802;exitDx=0;exitDy=0;exitPerimeter=0;entryX=0.5;entryY=0;entryDx=0;entryDy=0;" parent="1" source="ZWZ4TqS6q02lusVHSzw_-1" target="ZWZ4TqS6q02lusVHSzw_-7" edge="1">
          <mxGeometry width="50" height="50" relative="1" as="geometry">
            <mxPoint x="570" y="360" as="sourcePoint" />
            <mxPoint x="620" y="310" as="targetPoint" />
          </mxGeometry>
        </mxCell>
        <mxCell id="ZWZ4TqS6q02lusVHSzw_-10" value="" style="ellipse;whiteSpace=wrap;html=1;aspect=fixed;" parent="1" vertex="1">
          <mxGeometry x="220" y="425" width="40" height="40" as="geometry" />
        </mxCell>
        <mxCell id="ZWZ4TqS6q02lusVHSzw_-11" value="" style="endArrow=none;html=1;rounded=0;exitX=1.014;exitY=0.802;exitDx=0;exitDy=0;exitPerimeter=0;entryX=0.5;entryY=0;entryDx=0;entryDy=0;" parent="1" target="ZWZ4TqS6q02lusVHSzw_-10" edge="1">
          <mxGeometry width="50" height="50" relative="1" as="geometry">
            <mxPoint x="240.53999999999996" y="393.4999999999998" as="sourcePoint" />
            <mxPoint x="745" y="310" as="targetPoint" />
          </mxGeometry>
        </mxCell>
        <mxCell id="ZWZ4TqS6q02lusVHSzw_-12" value="Маніпулятор &quot;миша&quot;" style="text;html=1;strokeColor=none;fillColor=none;align=center;verticalAlign=middle;whiteSpace=wrap;rounded=0;" parent="1" vertex="1">
          <mxGeometry x="210" y="470" width="60" height="30" as="geometry" />
        </mxCell>
        <mxCell id="cCvuz6jEd934aqtc1693-6" style="edgeStyle=orthogonalEdgeStyle;rounded=0;orthogonalLoop=1;jettySize=auto;html=1;shape=link;strokeWidth=2;" parent="1" source="ZWZ4TqS6q02lusVHSzw_-13" target="ZWZ4TqS6q02lusVHSzw_-24" edge="1">
          <mxGeometry relative="1" as="geometry" />
        </mxCell>
        <mxCell id="ZWZ4TqS6q02lusVHSzw_-13" value="&amp;lt;&amp;lt; Сервер 1&amp;gt;&amp;gt;" style="verticalAlign=top;align=center;spacingTop=8;spacingLeft=2;spacingRight=12;shape=cube;size=10;direction=south;fontStyle=4;html=1;strokeWidth=2;" parent="1" vertex="1">
          <mxGeometry x="410" y="140" width="230" height="250" as="geometry" />
        </mxCell>
        <mxCell id="ZWZ4TqS6q02lusVHSzw_-14" value="&amp;lt;&amp;lt;ОS Linux&amp;gt;&amp;gt;" style="verticalAlign=top;align=center;spacingTop=8;spacingLeft=2;spacingRight=12;shape=cube;size=10;direction=south;fontStyle=4;html=1;" parent="1" vertex="1">
          <mxGeometry x="435" y="190" width="180" height="180" as="geometry" />
        </mxCell>
        <mxCell id="ZWZ4TqS6q02lusVHSzw_-22" value="&amp;lt;&amp;lt;Node.js&amp;gt;&amp;gt;" style="verticalAlign=top;align=center;spacingTop=8;spacingLeft=2;spacingRight=12;shape=cube;size=10;direction=south;fontStyle=4;html=1;" parent="1" vertex="1">
          <mxGeometry x="450" y="225" width="150" height="125" as="geometry" />
        </mxCell>
        <mxCell id="ZWZ4TqS6q02lusVHSzw_-23" value="*.js" style="shape=module;align=left;spacingLeft=20;align=center;verticalAlign=top;" parent="1" vertex="1">
          <mxGeometry x="469" y="272" width="100" height="50" as="geometry" />
        </mxCell>
        <mxCell id="ZWZ4TqS6q02lusVHSzw_-24" value="&amp;lt;&amp;lt; Сервер 2&amp;gt;&amp;gt;" style="verticalAlign=top;align=center;spacingTop=8;spacingLeft=2;spacingRight=12;shape=cube;size=10;direction=south;fontStyle=4;html=1;strokeWidth=2;" parent="1" vertex="1">
          <mxGeometry x="750" y="140" width="230" height="250" as="geometry" />
        </mxCell>
        <mxCell id="ZWZ4TqS6q02lusVHSzw_-25" value="&amp;lt;&amp;lt;ОS Linux&amp;gt;&amp;gt;" style="verticalAlign=top;align=center;spacingTop=8;spacingLeft=2;spacingRight=12;shape=cube;size=10;direction=south;fontStyle=4;html=1;" parent="1" vertex="1">
          <mxGeometry x="775" y="190" width="180" height="180" as="geometry" />
        </mxCell>
        <mxCell id="ZWZ4TqS6q02lusVHSzw_-26" value="&amp;lt;&amp;lt;Database Server &lt;br&gt;PosqreSQL&amp;gt;&amp;gt;" style="verticalAlign=top;align=center;spacingTop=8;spacingLeft=2;spacingRight=12;shape=cube;size=10;direction=south;fontStyle=4;html=1;" parent="1" vertex="1">
          <mxGeometry x="790" y="225" width="150" height="125" as="geometry" />
        </mxCell>
        <mxCell id="ZWZ4TqS6q02lusVHSzw_-28" value="Relation&lt;br style=&quot;border-color: var(--border-color);&quot;&gt;DateDase" style="shape=datastore;whiteSpace=wrap;html=1;" parent="1" vertex="1">
          <mxGeometry x="830" y="275" width="60" height="60" as="geometry" />
        </mxCell>
        <mxCell id="ZWZ4TqS6q02lusVHSzw_-32" value="" style="endArrow=none;dashed=1;html=1;dashPattern=1 3;strokeWidth=2;rounded=0;" parent="1" edge="1">
          <mxGeometry width="50" height="50" relative="1" as="geometry">
            <mxPoint x="357" y="498" as="sourcePoint" />
            <mxPoint x="354" y="69" as="targetPoint" />
          </mxGeometry>
        </mxCell>
        <mxCell id="ZWZ4TqS6q02lusVHSzw_-33" value="" style="endArrow=none;dashed=1;html=1;dashPattern=1 3;strokeWidth=2;rounded=0;" parent="1" edge="1">
          <mxGeometry width="50" height="50" relative="1" as="geometry">
            <mxPoint x="697" y="493" as="sourcePoint" />
            <mxPoint x="700" y="70" as="targetPoint" />
          </mxGeometry>
        </mxCell>
        <mxCell id="cCvuz6jEd934aqtc1693-2" value="&amp;lt;&amp;lt;ОS Windows, OS Linux&amp;gt;&amp;gt;" style="verticalAlign=top;align=center;spacingTop=8;spacingLeft=2;spacingRight=12;shape=cube;size=10;direction=south;fontStyle=4;html=1;" parent="1" vertex="1">
          <mxGeometry x="90" y="190" width="180" height="180" as="geometry" />
        </mxCell>
        <mxCell id="cCvuz6jEd934aqtc1693-3" value="&amp;lt;&amp;lt;Web-browser&amp;gt;&amp;gt;" style="verticalAlign=top;align=center;spacingTop=8;spacingLeft=2;spacingRight=12;shape=cube;size=10;direction=south;fontStyle=4;html=1;" parent="1" vertex="1">
          <mxGeometry x="105" y="225" width="150" height="125" as="geometry" />
        </mxCell>
        <mxCell id="cCvuz6jEd934aqtc1693-4" value="*.js &#xa;(Angular)" style="shape=module;align=left;spacingLeft=20;align=center;verticalAlign=top;" parent="1" vertex="1">
          <mxGeometry x="120" y="270" width="100" height="50" as="geometry" />
        </mxCell>
        <mxCell id="cCvuz6jEd934aqtc1693-5" style="rounded=0;orthogonalLoop=1;jettySize=auto;html=1;strokeColor=default;shape=link;strokeWidth=2;" parent="1" source="ZWZ4TqS6q02lusVHSzw_-1" target="ZWZ4TqS6q02lusVHSzw_-13" edge="1">
          <mxGeometry relative="1" as="geometry" />
        </mxCell>
      </root>
    </mxGraphModel>
  </diagram>
</mxfile>
